{"title":"R.I.P.D (2013) HDRip XviD-GRG &amp; mucker","uid":8861904,"size":786436885,"categoryP":"video","categoryS":"movies","magnet":"?xt=urn:btih:3cd0890ee229d34e605177cad2e4691f49707590&amp;dn=R.I.P.D+%282013%29+HDRip+XviD-GRG+%26amp%3B+mucker&amp;tr=udp%3A%2F%2Ftracker.openbittorrent.com%3A80&amp;tr=udp%3A%2F%2Fopen.demonii.com%3A1337&amp;tr=udp%3A%2F%2Ftracker.coppersurfer.tk%3A6969&amp;tr=udp%3A%2F%2Fexodus.desync.com%3A6969","seeders":7,"leechers":0,"uploader":"Thhaque","files":7,"time":1377796362,"description":"R.I.P.D.\n\nGenre: Action, Comedy, Crime, Fantasy\nYear: 2013\nCountry: USA\nRuntime: 95 min.\nDirector: Robert Schwentke\nCast: Ryan Reynolds, Jeff Bridges, Mary-Louise Parker\n\nGeneral\nComplete name                            : R.I.P.D (2013) HDRip XviD-GRG &amp; mucker.avi\nFormat                                   : AVI\nFormat/Info                              : Audio Video Interleave\nFile size                                : 750 MiB\nDuration                                 : 1h 35mn\nOverall bit rate                         : 1 094 Kbps\n\nVideo\nID                                       : 0\nFormat                                   : MPEG-4 Visual\nFormat profile                           : Advanced Simple@L5\nFormat settings, BVOP                    : 2\nFormat settings, QPel                    : No\nFormat settings, GMC                     : No warppoints\nFormat settings, Matrix                  : Default (H.263)\nCodec ID                                 : XVID\nCodec ID/Hint                            : XviD\nDuration                                 : 1h 35mn\nBit rate                                 : 960 Kbps\nWidth                                    : 624 pixels\nHeight                                   : 272 pixels\nDisplay aspect ratio                     : 2.25:1\nFrame rate                               : 23.976 fps\nColor space                              : YUV\nChroma subsampling                       : 4:2:0\nBit depth                                : 8 bits\nScan type                                : Progressive\nCompression mode                         : Lossy\nBits/(Pixel*Frame)                       : 0.236\nStream size                              : 658 MiB (88%)\nWriting library                          : XviD 1.2.1 (UTC 2008-12-04)\n\nAudio\nID                                       : 1\nFormat                                   : MPEG Audio\nFormat version                           : Version 1\nFormat profile                           : Layer 3\nMode                                     : Joint stereo\nMode extension                           : MS Stereo\nCodec ID                                 : 55\nCodec ID/Hint                            : MP3\nDuration                                 : 1h 35mn\nBit rate mode                            : Constant\nBit rate                                 : 128 Kbps\nChannel(s)                               : 2 channels\nSampling rate                            : 48.0 KHz\nCompression mode                         : Lossy\nStream size                              : 87.7 MiB (12%)\nAlignment                                : Aligned on interleaves\nInterleave, duration                     : 167 ms (4.00 video frames)\nInterleave, preload duration             : 216 ms\nTitle                                    : mp3\nWriting library                          : LAME3.97\n\n\n.: Plot :.\nA recently slain cop joins a team of undead police officers working for the Rest in Peace Department and tries to find the man who murdered him. ","torrent":{"xt":"urn:btih:3cd0890ee229d34e605177cad2e4691f49707590","amp;dn":"R.I.P.D+%282013%29+HDRip+XviD-GRG+%26amp%3B+mucker","amp;tr":["udp%3A%2F%2Ftracker.openbittorrent.com%3A80","udp%3A%2F%2Fopen.demonii.com%3A1337","udp%3A%2F%2Ftracker.coppersurfer.tk%3A6969","udp%3A%2F%2Fexodus.desync.com%3A6969"],"infoHash":"3cd0890ee229d34e605177cad2e4691f49707590","infoHashBuffer":{"type":"Buffer","data":[60,208,137,14,226,41,211,78,96,81,119,202,210,228,105,31,73,112,117,144]},"announce":[],"urlList":[]}}